<?xml version="1.0" encoding="UTF-8"?>
<svg width="512" height="512" viewBox="0 0 512 512" fill="none" xmlns="http://www.w3.org/2000/svg">
    <!-- 背景 -->
    <rect width="512" height="512" rx="100" fill="#2196F3"/>
    
    <!-- 外层云朵阴影 -->
    <path d="M116 236C116 196.235 148.235 164 188 164C214.815 164 238.328 179.093 248.847 201.569C258.577 194.293 270.594 190 283.5 190C311.395 190 334 212.605 334 240.5C334 241.981 333.942 243.447 333.827 244.894C342.483 239.772 352.556 236.9 363.3 236.9C403.065 236.9 435.3 269.135 435.3 308.9C435.3 348.665 403.065 380.9 363.3 380.9H188C148.235 380.9 116 348.665 116 308.9V236Z" fill="#1976D2"/>
    
    <!-- 外层云朵 -->
    <path d="M106 226C106 186.235 138.235 154 178 154C204.815 154 228.328 169.093 238.847 191.569C248.577 184.293 260.594 180 273.5 180C301.395 180 324 202.605 324 230.5C324 231.981 323.942 233.447 323.827 234.894C332.483 229.772 342.556 226.9 353.3 226.9C393.065 226.9 425.3 259.135 425.3 298.9C425.3 338.665 393.065 370.9 353.3 370.9H178C138.235 370.9 106 338.665 106 298.9V226Z" fill="#E3F2FD"/>
    
    <!-- 内层云朵阴影 -->
    <path d="M146 266C146 236.177 170.177 212 200 212C219.255 212 236.062 223.132 243.515 239.512C250.613 234.371 259.184 231.3 268.4 231.3C288.531 231.3 305 247.769 305 267.9C305 269.049 304.972 270.191 304.916 271.324C310.931 267.869 317.937 265.85 325.3 265.85C353.582 265.85 376.3 288.568 376.3 316.85C376.3 345.132 353.582 367.85 325.3 367.85H200C170.177 367.85 146 343.673 146 313.85V266Z" fill="#1976D2"/>
    
    <!-- 内层云朵 -->
    <path d="M136 256C136 226.177 160.177 202 190 202C209.255 202 226.062 213.132 233.515 229.512C240.613 224.371 249.184 221.3 258.4 221.3C278.531 221.3 295 237.769 295 257.9C295 259.049 294.972 260.191 294.916 261.324C300.931 257.869 307.937 255.85 315.3 255.85C343.582 255.85 366.3 278.568 366.3 306.85C366.3 335.132 343.582 357.85 315.3 357.85H190C160.177 357.85 136 333.673 136 303.85V256Z" fill="#90CAF9"/>
</svg> 